<?xml version="1.0" encoding="UTF-8" standalone="no"?>
<svg
   fill="none"
   viewBox="0 0 500 500"
   version="1.1"
   id="mug-jp-logo"
   width="500"
   height="500"
   xmlns="http://www.w3.org/2000/svg"
   xmlns:svg="http://www.w3.org/2000/svg">
  <defs
     id="defs13" />
  <!-- Background -->
  <rect
     id="background"
     width="500"
     height="500"
     fill="#2a65a3" />
  <!-- MapLibre Logo - centered -->
  <g
     id="maplibre-logo"
     transform="translate(160,30)">
    <!-- Pin marker (light blue) -->
    <path
       fill="#82b4fe"
       fill-rule="evenodd"
       d="M 91.32,0.578 C 41.994,0.258 1.624,37.59 1.323,83.793 c -0.266,40.912 19.964,60.885 41.871,82.513 15.273,15.078 31.36,30.96 41.885,55.302 0.71,0.577 1.185,0.962 1.389,1.144 a 5.164,5.164 0 0 0 3.398,1.286 5.172,5.172 0 0 0 3.416,-1.241 c 0.055,-0.049 0.156,-0.092 0.28,-0.145 0.34,-0.146 0.857,-0.368 1.124,-0.983 10.49,-24.11 26.806,-39.778 42.388,-54.74 22.189,-21.307 42.888,-41.184 43.153,-81.972 C 180.528,38.753 140.647,0.9 91.32,0.578 Z m -0.86,132.349 c 24.424,0.159 44.356,-19.81 44.517,-44.602 0.161,-24.792 -19.509,-45.019 -43.934,-45.178 -24.425,-0.159 -44.356,19.81 -44.518,44.602 -0.161,24.792 19.509,45.019 43.934,45.178 z"
       clip-rule="evenodd"
       id="pin-marker" />
    <!-- Badge (white rectangle) -->
    <path
       fill="#FFFFFF"
       fill-rule="evenodd"
       d="m 58.49,238.338 c -4.075,-0.027 -7.408,4.48 -7.444,10.065 l -0.184,28.269 c -0.037,5.585 3.237,10.134 7.313,10.161 l 62.385,0.406 c 4.075,0.026 7.408,-4.48 7.444,-10.065 l 0.184,-28.269 c 0.037,-5.586 -3.237,-10.135 -7.313,-10.161 z"
       clip-rule="evenodd"
       id="badge" />
  </g>
  <!-- MUG-JP Text with Alata font -->
  <g
     aria-label="MUG-JP"
     id="mug-jp-text"
     style="font-size:90px;font-family:Alata;text-anchor:middle">
    <path
       d="m 100.55493,399.13 -4.139995,-9.36 -1.89,9.36 -6.12,30.87 h -9.99 l 13.68,-66.15 h 1.08 l 18.179995,35.73 5.4,11.97 5.4,-11.97 17.82,-35.73 h 0.99 l 14.22,66.15 h -9.9 l -6.66,-30.87 -1.98,-9.36 -3.6,9.36 -16.02,30.87 h -0.54 z"
       style="fill:#FFFFFF"
       id="path15" />
    <path
       d="m 186.86498,430.9 q -12.42,0 -18,-7.47 -5.58,-7.47 -5.58,-21.69 v -37.89 h 10.08 v 38.07 q 0,10.53 3.15,15.12 3.15,4.5 10.35,4.5 7.2,0 10.26,-4.41 3.15,-4.5 3.15,-15.21 v -38.07 h 10.17 v 37.89 q 0,14.13 -5.94,21.69 -5.85,7.47 -17.64,7.47 z"
       style="fill:#FFFFFF"
       id="path17" />
    <path
       d="m 254.54503,430.9 q -9.81,0 -17.55,-4.5 -7.74,-4.5 -12.15,-12.33 -4.32,-7.92 -4.32,-17.73 0,-9.54 4.41,-17.19 4.41,-7.65 12.24,-11.97 7.83,-4.32 17.64,-4.32 5.31,0 9.54,0.99 4.32,0.9 7.02,2.16 2.7,1.17 3.69,2.07 l -3.96,8.46 q -5.58,-4.5 -16.47,-4.5 -7.2,0 -12.51,3.15 -5.31,3.15 -8.1,8.55 -2.79,5.4 -2.79,12.06 0,7.56 2.97,13.5 3.06,5.94 8.37,9.27 5.4,3.24 12.15,3.24 4.23,0 8.1,-0.99 3.87,-1.08 6.57,-3.33 v -12.78 h -13.59 v -9.27 h 23.58 v 25.92 q -3.24,4.05 -9.81,6.84 -6.48,2.7 -15.03,2.7 z"
       style="fill:#FFFFFF"
       id="path19" />
    <path
       d="m 293.51499,403.09 h 30.87 v 8.64 h -30.87 z"
       style="fill:#FFFFFF"
       id="path21" />
    <path
       d="m 351.65498,430.9 q -3.78,0 -7.65,-0.9 -3.87,-0.99 -6.48,-3.24 l 4.05,-9.27 q 1.62,1.89 3.6,2.88 2.07,0.9 5.04,0.9 2.79,0 4.5,-0.99 1.71,-0.99 2.52,-3.6 0.9,-2.61 0.9,-7.47 v -45.36 h 9.99 v 47.88 q 0,10.08 -4.59,14.67 -4.5,4.5 -11.88,4.5 z"
       style="fill:#82b4fe"
       id="path23" />
    <path
       d="m 382.795,363.85 h 14.58 q 12.33,0 18,5.31 5.76,5.22 5.76,14.4 0,10.62 -6.21,16.29 -6.21,5.67 -18.45,5.67 h -3.51 V 430 h -10.17 z m 13.95,32.76 q 7.92,0 11.07,-3.51 3.15,-3.51 3.15,-8.46 0,-5.31 -3.06,-8.64 -3.06,-3.33 -10.26,-3.33 h -4.68 v 23.94 z"
       style="fill:#82b4fe"
       id="path25" />
  </g>
</svg>
