<svg xmlns="http://www.w3.org/2000/svg" viewBox="0 0 1000 480">
  <!-- Background -->
  <rect fill="#285DAA" width="1000" height="480"/>
  
  <!-- MapLibre Logo Group - scaled and positioned -->
  <g transform="translate(128, 145) scale(0.55)">
    <!-- Map Pin Icon (light blue) -->
    <path
      fill="#82b4fe"
      fill-rule="evenodd"
      d="M 91.32,0.578 C 41.994,0.258 1.624,37.59 1.323,83.793 c -0.266,40.912 19.964,60.885 41.871,82.513 15.273,15.078 31.36,30.96 41.885,55.302 0.71,0.577 1.185,0.962 1.389,1.144 a 5.164,5.164 0 0 0 3.398,1.286 5.172,5.172 0 0 0 3.416,-1.241 c 0.055,-0.049 0.156,-0.092 0.28,-0.145 0.34,-0.146 0.857,-0.368 1.124,-0.983 10.49,-24.11 26.806,-39.778 42.388,-54.74 22.189,-21.307 42.888,-41.184 43.153,-81.972 C 180.528,38.753 140.647,0.9 91.32,0.578 Z m -0.86,132.349 c 24.424,0.159 44.356,-19.81 44.517,-44.602 0.161,-24.792 -19.509,-45.019 -43.934,-45.178 -24.425,-0.159 -44.356,19.81 -44.518,44.602 -0.161,24.792 19.509,45.019 43.934,45.178 z"
      clip-rule="evenodd"/>
    <!-- Base rectangle (white) -->
    <path
      fill="#ffffff"
      fill-rule="evenodd"
      d="m 58.49,238.338 c -4.075,-0.027 -7.408,4.48 -7.444,10.065 l -0.184,28.269 c -0.037,5.585 3.237,10.134 7.313,10.161 l 62.385,0.406 c 4.075,0.026 7.408,-4.48 7.444,-10.065 l 0.184,-28.269 c 0.037,-5.586 -3.237,-10.135 -7.313,-10.161 z"
      clip-rule="evenodd"/>
    
    <!-- "Map" text (white) -->
    <path
      fill="#ffffff"
      d="m 292.72,162.643 -12.175,-27.525 -5.558,27.525 -17.997,90.78 H 227.612 L 267.841,58.894 h 3.176 l 53.463,105.072 15.879,35.201 15.88,-35.201 52.404,-105.072 h 2.911 l 41.817,194.529 h -29.113 l -19.585,-90.78 -5.823,-27.525 -10.586,27.525 -47.111,90.78 h -1.587 z m 238.603,93.427 c -10.939,0 -21.085,-2.559 -30.436,-7.675 -9.175,-5.294 -16.586,-12.704 -22.232,-22.232 -5.47,-9.705 -8.204,-20.997 -8.204,-33.877 0,-12.704 2.381,-23.82 7.145,-33.348 4.941,-9.528 11.91,-16.939 20.909,-22.232 8.999,-5.293 19.585,-7.94 31.76,-7.94 7.057,0 13.674,1.235 19.85,3.705 6.175,2.471 11.38,5.558 15.615,9.264 4.234,3.528 7.058,7.057 8.469,10.586 l 0.529,-20.379 h 27.261 v 121.481 h -26.996 l -0.529,-21.438 c -3,6.352 -8.47,11.998 -16.409,16.939 -7.94,4.764 -16.851,7.146 -26.732,7.146 z m 4.764,-23.82 c 10.058,0 18.527,-3.441 25.408,-10.322 6.881,-7.058 10.322,-16.233 10.322,-27.525 v -1.853 c 0,-7.587 -1.588,-14.38 -4.764,-20.379 -3.176,-5.999 -7.499,-10.675 -12.968,-14.027 -5.47,-3.353 -11.469,-5.029 -17.998,-5.029 -11.292,0 -20.026,3.706 -26.201,11.116 -6.176,7.234 -9.264,16.674 -9.264,28.319 0,11.822 3,21.438 8.999,28.849 6.175,7.234 14.998,10.851 26.466,10.851 z m 104.87,-100.308 h 27.525 v 22.497 c 9.704,-17.115 24.878,-25.673 45.522,-25.673 17.115,0 30.966,5.47 41.552,16.409 10.587,10.763 15.88,26.379 15.88,46.846 0,12.704 -2.646,23.908 -7.94,33.612 -5.116,9.705 -12.174,17.204 -21.173,22.497 -8.822,5.293 -18.703,7.94 -29.642,7.94 -10.234,0 -19.144,-1.765 -26.731,-5.293 -7.411,-3.706 -13.234,-8.911 -17.468,-15.616 l 0.264,82.576 h -27.789 z m 65.107,100.043 c 11.469,0 20.291,-3.617 26.467,-10.851 6.175,-7.411 9.263,-16.85 9.263,-28.319 0,-11.998 -3.088,-21.526 -9.263,-28.584 -5.999,-7.234 -14.822,-10.851 -26.467,-10.851 -6.352,0 -12.351,1.588 -17.997,4.764 -5.47,2.999 -9.881,7.41 -13.233,13.233 -3.176,5.646 -4.764,12.263 -4.764,19.85 v 1.853 c 0,7.587 1.588,14.38 4.764,20.379 3.352,5.822 7.763,10.41 13.233,13.762 5.47,3.176 11.469,4.764 17.997,4.764 z"/>
    
    <!-- "Libre" text (light blue) -->
    <path
      fill="#82b4fe"
      d="m 802.464,58.895 h 29.907 v 168.062 h 55.844 v 26.466 H 802.464 V 58.894 Z m 114.505,73.047 h 29.642 v 121.481 h -29.642 z m 14.556,-22.761 c -5.47,0 -10.057,-1.853 -13.762,-5.558 -3.706,-3.705 -5.558,-8.293 -5.558,-13.763 0,-4.94 1.852,-9.175 5.558,-12.704 3.705,-3.529 8.292,-5.293 13.762,-5.293 5.293,0 9.793,1.764 13.498,5.293 3.705,3.53 5.558,7.764 5.558,12.704 0,5.47 -1.853,10.058 -5.558,13.763 -3.529,3.705 -8.028,5.558 -13.498,5.558 z M 1058.18,256.07 c -9.89,0 -18.8,-2.382 -26.74,-7.146 -7.76,-4.941 -13.14,-10.587 -16.14,-16.939 l -0.53,21.438 H 987.245 V 58.894 h 28.055 v 74.901 l -1.32,20.644 c 3,-7.058 8.82,-13.057 17.46,-17.998 8.83,-5.117 18.35,-7.675 28.59,-7.675 12,0 22.41,2.735 31.23,8.205 9,5.293 15.88,12.792 20.64,22.496 4.77,9.528 7.15,20.644 7.15,33.348 0,12.88 -2.82,24.084 -8.47,33.612 -5.47,9.528 -12.88,16.851 -22.23,21.968 -9.18,5.116 -19.23,7.675 -30.17,7.675 z m -4.77,-23.82 c 11.47,0 20.29,-3.617 26.47,-10.851 6.17,-7.411 9.26,-16.939 9.26,-28.584 0,-11.822 -3.09,-21.35 -9.26,-28.584 -6,-7.411 -14.82,-11.116 -26.47,-11.116 -10.06,0 -18.52,3.529 -25.41,10.587 -6.88,6.881 -10.32,15.968 -10.32,27.26 v 1.853 c 0,7.587 1.59,14.38 4.77,20.379 3.35,5.999 7.67,10.675 12.96,14.027 5.47,3.353 11.47,5.029 18,5.029 z m 95.33,-100.308 h 28.58 v 23.82 c 2.83,-8.117 7.41,-14.645 13.77,-19.585 6.35,-4.941 13.58,-7.411 21.7,-7.411 5.65,0 9.53,0.529 11.64,1.588 l -3.97,28.848 c -1.58,-1.058 -5.02,-1.588 -10.32,-1.588 -8.29,0 -15.88,2.647 -22.76,7.94 -6.7,5.294 -10.06,13.763 -10.06,25.408 v 62.461 h -28.58 z m 153.34,124.128 c -14.47,0 -26.55,-2.823 -36.26,-8.469 -9.7,-5.823 -16.85,-13.498 -21.44,-23.026 -4.58,-9.705 -6.88,-20.291 -6.88,-31.76 0,-12.88 2.65,-24.173 7.94,-33.877 5.47,-9.705 12.97,-17.115 22.5,-22.232 9.53,-5.293 20.29,-7.94 32.29,-7.94 18.7,0 32.55,5.205 41.55,15.615 9.18,10.234 13.76,24.702 13.76,43.405 0,4.764 -0.26,9.705 -0.79,14.821 h -87.34 c 1.94,10.764 5.73,18.527 11.38,23.291 5.82,4.764 13.85,7.146 24.08,7.146 8.47,0 15.44,-0.706 20.91,-2.117 5.47,-1.412 10.5,-3.353 15.09,-5.823 l 8.73,20.379 c -4.41,2.823 -10.41,5.293 -17.99,7.411 -7.59,2.117 -16.77,3.176 -27.53,3.176 z m 25.67,-73.312 c 0.18,-10.94 -2.2,-18.615 -7.14,-23.026 -4.94,-4.588 -12,-6.881 -21.18,-6.881 -18.52,0 -29.2,9.969 -32.02,29.907 z"/>
  </g>
  
  <!-- User Group Japan Text (Outlined) -->
  <!-- "User Group " in white -->
  <g fill="#ffffff">
    <g transform="translate(528.222, 335) scale(0.042000, -0.042000)">
      <path d="M331 -10Q235 -10 177.5 29.0Q120 68 94.5 141.0Q69 214 69 314V735H181V312Q181 195 216.5 144.5Q252 94 331 94Q410 94 445.0 143.0Q480 192 480 312V735H593V314Q593 160 529.0 75.0Q465 -10 331 -10Z"/>
    </g>
    <g transform="translate(556.026, 335) scale(0.042000, -0.042000)">
      <path d="M229 -10Q197 -10 162.5 -4.0Q128 2 99.5 11.5Q71 21 56 32L92 117Q109 105 143.5 90.0Q178 75 229 75Q274 75 290.0 88.5Q306 102 306 120Q306 139 292.5 149.5Q279 160 254.0 169.0Q229 178 195 191Q162 205 132.0 223.5Q102 242 83.5 269.5Q65 297 65 337Q65 402 115.0 436.5Q165 471 247 471Q289 471 328.5 462.0Q368 453 388 439L349 353Q337 365 309.5 375.0Q282 385 244 385Q173 385 173 342Q173 321 188.5 308.5Q204 296 229.5 287.5Q255 279 285 267Q346 243 378.5 211.5Q411 180 411 128Q411 81 386.0 50.0Q361 19 319.5 4.5Q278 -10 229 -10Z"/>
    </g>
    <g transform="translate(575.010, 335) scale(0.042000, -0.042000)">
      <path d="M288 -10Q202 -10 148.0 23.5Q94 57 69.0 112.0Q44 167 44 229Q44 304 74.5 358.0Q105 412 159.0 441.5Q213 471 281 471Q390 471 440.0 410.5Q490 350 490 248Q490 221 487 192H157Q168 130 201.5 103.5Q235 77 291 77Q345 77 376.0 87.0Q407 97 427 107L460 30Q440 17 398.0 3.5Q356 -10 288 -10ZM157 267H385Q386 332 356.0 356.0Q326 380 278 380Q228 380 196.5 353.5Q165 327 157 267Z"/>
    </g>
    <g transform="translate(597.354, 335) scale(0.042000, -0.042000)">
      <path d="M68 0V459H176V369Q192 414 227.5 442.5Q263 471 310 471Q342 471 354 465L339 356Q330 362 300 362Q275 362 246.0 351.0Q217 340 196.5 312.5Q176 285 176 236V0Z"/>
    </g>
    <g transform="translate(622.722, 335) scale(0.042000, -0.042000)">
      <path d="M421 -10Q338 -10 268.5 19.0Q199 48 148.5 99.5Q98 151 70.5 221.5Q43 292 43 374Q43 455 71.0 523.0Q99 591 150.0 641.0Q201 691 271.0 718.5Q341 746 424 746Q489 746 536.5 734.5Q584 723 612.5 709.5Q641 696 649 688L605 594Q598 600 577.0 612.0Q556 624 518.5 634.0Q481 644 422 644Q340 644 282.0 608.5Q224 573 193.0 513.0Q162 453 162 380Q162 295 196.0 229.5Q230 164 289.0 127.5Q348 91 423 91Q466 91 510.5 102.0Q555 113 586 139V281H435V384H697V96Q664 54 593.0 22.0Q522 -10 421 -10Z"/>
    </g>
    <g transform="translate(653.970, 335) scale(0.042000, -0.042000)">
      <path d="M68 0V459H176V369Q192 414 227.5 442.5Q263 471 310 471Q342 471 354 465L339 356Q330 362 300 362Q275 362 246.0 351.0Q217 340 196.5 312.5Q176 285 176 236V0Z"/>
    </g>
    <g transform="translate(669.048, 335) scale(0.042000, -0.042000)">
      <path d="M285 -10Q213 -10 158.5 22.0Q104 54 74.0 109.0Q44 164 44 231Q44 297 73.5 351.5Q103 406 157.0 438.5Q211 471 285 471Q359 471 413.0 438.5Q467 406 496.0 351.5Q525 297 525 231Q525 164 495.5 109.0Q466 54 412.0 22.0Q358 -10 285 -10ZM288 78Q348 78 380.5 122.0Q413 166 413 229Q413 272 397.0 306.5Q381 341 351.5 362.0Q322 383 282 383Q243 383 215.0 362.0Q187 341 171.5 306.5Q156 272 156 229Q156 187 173.0 152.5Q190 118 219.5 98.0Q249 78 288 78Z"/>
    </g>
    <g transform="translate(692.946, 335) scale(0.042000, -0.042000)">
      <path d="M230 -10Q161 -10 125.0 19.0Q89 48 76.5 96.0Q64 144 64 202V459H172V229Q172 176 178.5 143.0Q185 110 204.5 94.5Q224 79 263 79Q291 79 316.5 94.5Q342 110 359.0 137.5Q376 165 376 199V459H483V0H395L383 67Q358 29 321.0 9.5Q284 -10 230 -10Z"/>
    </g>
    <g transform="translate(716.298, 335) scale(0.042000, -0.042000)">
      <path d="M73 -243V459H177V374Q200 415 241.5 443.0Q283 471 349 471Q411 471 460.0 445.0Q509 419 537.5 366.0Q566 313 566 232Q566 158 536.0 103.5Q506 49 456.0 19.5Q406 -10 344 -10Q285 -10 243.0 11.0Q201 32 177 69V-243ZM319 81Q387 81 420.5 124.0Q454 167 454 229Q454 294 420.5 336.0Q387 378 319 378Q283 378 252.0 361.0Q221 344 202.0 312.0Q183 280 183 235V228Q183 184 202.0 150.5Q221 117 252.0 99.0Q283 81 319 81Z"/>
    </g>
  </g>
  
  <!-- "Japan" in light blue -->
  <g fill="#82b4fe">
    <g transform="translate(752.208, 335) scale(0.042000, -0.042000)">
      <path d="M193 -10Q159 -10 113.5 -1.0Q68 8 36 36L81 139Q98 119 120.5 108.0Q143 97 177 97Q207 97 226.5 107.5Q246 118 255.5 147.0Q265 176 265 231V735H376V203Q376 123 351.0 76.5Q326 30 284.5 10.0Q243 -10 193 -10Z"/>
    </g>
    <g transform="translate(771.570, 335) scale(0.042000, -0.042000)">
      <path d="M274 -10Q213 -10 160.5 19.0Q108 48 76.0 102.0Q44 156 44 231Q44 303 71.5 357.0Q99 411 149.5 441.0Q200 471 270 471Q312 471 346.5 456.5Q381 442 404.5 421.5Q428 401 436 382L438 459H541V0H439L437 81Q427 59 403.5 38.0Q380 17 347.0 3.5Q314 -10 274 -10ZM292 80Q329 80 359.5 97.5Q390 115 408.5 147.0Q427 179 427 223V230Q427 275 408.5 308.5Q390 342 359.5 360.5Q329 379 292 379Q225 379 191.5 336.0Q158 293 158 230Q158 166 191.5 123.0Q225 80 292 80Z"/>
    </g>
    <g transform="translate(797.400, 335) scale(0.042000, -0.042000)">
      <path d="M73 -243V459H177V374Q200 415 241.5 443.0Q283 471 349 471Q411 471 460.0 445.0Q509 419 537.5 366.0Q566 313 566 232Q566 158 536.0 103.5Q506 49 456.0 19.5Q406 -10 344 -10Q285 -10 243.0 11.0Q201 32 177 69V-243ZM319 81Q387 81 420.5 124.0Q454 167 454 229Q454 294 420.5 336.0Q387 378 319 378Q283 378 252.0 361.0Q221 344 202.0 312.0Q183 280 183 235V228Q183 184 202.0 150.5Q221 117 252.0 99.0Q283 81 319 81Z"/>
    </g>
    <g transform="translate(823.020, 335) scale(0.042000, -0.042000)">
      <path d="M274 -10Q213 -10 160.5 19.0Q108 48 76.0 102.0Q44 156 44 231Q44 303 71.5 357.0Q99 411 149.5 441.0Q200 471 270 471Q312 471 346.5 456.5Q381 442 404.5 421.5Q428 401 436 382L438 459H541V0H439L437 81Q427 59 403.5 38.0Q380 17 347.0 3.5Q314 -10 274 -10ZM292 80Q329 80 359.5 97.5Q390 115 408.5 147.0Q427 179 427 223V230Q427 275 408.5 308.5Q390 342 359.5 360.5Q329 379 292 379Q225 379 191.5 336.0Q158 293 158 230Q158 166 191.5 123.0Q225 80 292 80Z"/>
    </g>
    <g transform="translate(848.850, 335) scale(0.042000, -0.042000)">
      <path d="M71 0V459H177L178 375Q196 416 236.5 443.5Q277 471 334 471Q408 471 445.0 440.5Q482 410 494.5 354.0Q507 298 507 221V0H399V218Q399 298 383.5 340.0Q368 382 312 382Q283 382 252.0 364.0Q221 346 200.0 312.0Q179 278 179 228V0Z"/>
    </g>
  </g>
</svg>
